<?xml version="1.0" standalone="no"?>
<!DOCTYPE svg PUBLIC "-//W3C//DTD SVG 20010904//EN"
 "http://www.w3.org/TR/2001/REC-SVG-20010904/DTD/svg10.dtd">
<svg version="1.0" xmlns="http://www.w3.org/2000/svg"
 width="70.000000pt" height="70.000000pt" viewBox="0 0 70.000000 70.000000"
 preserveAspectRatio="xMidYMid meet">
<metadata>
Created by potrace 1.14, written by Peter Selinger 2001-2017
</metadata>
<g transform="translate(0.000000,70.000000) scale(0.100000,-0.100000)"
fill="#000000" stroke="none">
<path d="M253 685 c-102 -31 -176 -96 -222 -195 -21 -45 -26 -70 -26 -140 0
-76 3 -92 33 -152 38 -77 92 -130 171 -166 46 -21 71 -26 141 -27 72 0 94 4
142 27 73 34 142 104 176 176 22 48 27 71 27 142 0 71 -5 94 -27 141 -57 124
-169 200 -301 205 -40 1 -91 -4 -114 -11z"/>
</g>
</svg>
